<?xml version="1.0" encoding="UTF-8" standalone="no"?>
<!DOCTYPE svg PUBLIC "-//W3C//DTD SVG 1.1//EN" "http://www.w3.org/Graphics/SVG/1.1/DTD/svg11.dtd">
<svg xmlns="http://www.w3.org/2000/svg" xmlns:xlink="http://www.w3.org/1999/xlink" version="1.1" width="828pt" height="453.6pt" viewBox="0 0 828 453.6">
<g enable-background="new">
<clipPath id="cp0">
<path transform="matrix(1,0,0,-1,-74.4,530.4)" d="M 0 0 L 960 0 L 960 540 L 0 540 Z "/>
</clipPath>
<g clip-path="url(#cp0)">
<clipPath id="cp1">
<path transform="matrix(1,0,0,-1,-74.4,530.4)" d="M 0 .00001206994 L 959.76 .00001206994 L 959.76 540 L 0 540 Z "/>
</clipPath>
<g clip-path="url(#cp1)">
<path transform="matrix(1,0,0,-1,-74.4,530.4)" d="M 0 540 L 959.76 540 L 959.76 .00001206994 L 0 .00001206994 Z " fill="#ffffff"/>
</g>
<path transform="matrix(1,0,0,-1,-74.4,530.4)" d="M 0 540 L 960 540 L 960 .0000140816 L 0 .0000140816 Z " fill="#ffffff"/>
<path transform="matrix(1,0,0,-1,-74.4,530.4)" d="M 666.5959 41.12503 L 960 41.12503 L 960 -.000007615685 L 666.5959 -.000007615685 Z " fill="#06509d"/>
<path transform="matrix(1,0,0,-1,-74.4,530.4)" d="M 666.5959 48.83506 L 960 48.83506 L 960 41.12506 L 666.5959 41.12506 Z " fill="#8ec423"/>
<clipPath id="cp2">
<path transform="matrix(1,0,0,-1,-74.4,530.4)" d="M 704.2979 14.75001 L 922.2979 14.75001 L 922.2979 24.75001 L 704.2979 24.75001 Z "/>
</clipPath>
<g clip-path="url(#cp2)">
<path transform="matrix(1,0,0,-1,-74.4,530.4)" d="M 704.2979 14.90798 L 705.51699 14.90798 L 705.51699 24.593056 L 704.2979 24.593056 Z " fill="#ffffff"/>
</g>
<clipPath id="cp3">
<path transform="matrix(1,0,0,-1,-74.4,530.4)" d="M 704.2979 14.75001 L 922.2979 14.75001 L 922.2979 24.749989 L 704.2979 24.749989 Z "/>
</clipPath>
<g clip-path="url(#cp3)">
<path transform="matrix(1,0,0,-1,-74.4,530.4)" d="M 710.2629 15.89997 C 710.5709 15.84151 711.0189 15.82817 711.4949 15.82817 C 714.1009 15.82817 715.516 17.32268 715.516 19.9373 C 715.53 22.22163 714.2689 23.67306 711.6919 23.67306 C 711.0609 23.67306 710.5849 23.61459 710.2629 23.54382 Z M 709.0438 24.46391 C 709.7858 24.57777 710.6689 24.66393 711.6349 24.66393 C 713.3859 24.66393 714.633 24.24748 715.459 23.45766 C 716.3 22.66783 716.79 21.54669 716.79 19.98038 C 716.79 18.40074 716.314 17.10727 715.432 16.2159 C 714.5489 15.3112 713.0919 14.82192 711.2569 14.82192 C 710.3889 14.82192 709.6598 14.865 709.0438 14.93783 Z " fill="#ffffff"/>
<path transform="matrix(1,0,0,-1,-74.4,530.4)" d="M 724.1949 18.93115 L 723.2698 21.71912 C 723.0598 22.35098 722.9208 22.92642 722.7798 23.48545 L 722.7518 23.48545 C 722.6118 22.91104 722.4578 22.32226 722.2758 21.73246 L 721.3508 18.93115 Z M 721.0988 17.95464 L 720.1188 14.90818 L 718.8577 14.90818 L 722.0658 24.59326 L 723.5369 24.59326 L 726.7579 14.90818 L 725.4559 14.90818 L 724.4469 17.95464 Z " fill="#ffffff"/>
<path transform="matrix(1,0,0,-1,-74.4,530.4)" d="M 730.7594 24.59274 L 730.7594 20.54106 L 735.3255 20.54106 L 735.3255 24.59274 L 736.5586 24.59274 L 736.5586 14.90869 L 735.3255 14.90869 L 735.3255 19.44864 L 730.7594 19.44864 L 730.7594 14.90869 L 729.5404 14.90869 L 729.5404 24.59274 Z " fill="#ffffff"/>
<path transform="matrix(1,0,0,-1,-74.4,530.4)" d="M 740.8094 19.69246 C 740.8094 17.62353 741.9025 15.77104 743.8215 15.77104 C 745.7546 15.77104 746.8466 17.59481 746.8466 19.79401 C 746.8466 21.71933 745.8666 23.73081 743.8355 23.73081 C 741.8185 23.73081 740.8094 21.81882 740.8094 19.69246 M 748.1356 19.85042 C 748.1356 16.51675 746.1616 14.75042 743.7515 14.75042 C 741.2575 14.75042 739.5064 16.73319 739.5064 19.66476 C 739.5064 22.73892 741.3705 24.7504 743.8915 24.7504 C 746.4686 24.7504 748.1356 22.72456 748.1356 19.85042 " fill="#ffffff"/>
<path transform="matrix(1,0,0,-1,-74.4,530.4)" d="M 755.4817 14.90828 L 755.4817 24.59233 L 756.8127 24.59233 L 759.8378 19.69235 C 760.5388 18.55788 761.0858 17.53727 761.5338 16.5464 L 761.5608 16.56076 C 761.4498 17.8532 761.4208 19.0328 761.4208 20.54065 L 761.4208 24.59233 L 762.5698 24.59233 L 762.5698 14.90828 L 761.3368 14.90828 L 758.3388 19.82262 C 757.6807 20.89966 757.0507 22.00643 756.5747 23.05474 L 756.5327 23.04141 C 756.6027 21.81872 756.6297 20.65655 756.6297 19.04614 L 756.6297 14.90828 Z " fill="#ffffff"/>
<path transform="matrix(1,0,0,-1,-74.4,530.4)" d="M 770.7164 18.93115 L 769.7914 21.71912 C 769.5814 22.35098 769.4414 22.92642 769.3014 23.48545 L 769.2734 23.48545 C 769.1334 22.91104 768.9794 22.32226 768.7964 21.73246 L 767.8724 18.93115 Z M 767.6204 17.95464 L 766.6403 14.90818 L 765.3793 14.90818 L 768.5864 24.59326 L 770.0574 24.59326 L 773.2795 14.90818 L 771.9765 14.90818 L 770.9684 17.95464 Z " fill="#ffffff"/>
<path transform="matrix(1,0,0,-1,-74.4,530.4)" d="M 776.7781 23.52895 L 773.907 23.52895 L 773.907 24.59264 L 780.8962 24.59264 L 780.8962 23.52895 L 778.0101 23.52895 L 778.0101 14.90859 L 776.7781 14.90859 Z " fill="#ffffff"/>
<path transform="matrix(1,0,0,-1,-74.4,530.4)" d="M 783.3427 14.90798 L 784.56179 14.90798 L 784.56179 24.59203 L 783.3427 24.59203 Z " fill="#ffffff"/>
<path transform="matrix(1,0,0,-1,-74.4,530.4)" d="M 788.8311 19.69246 C 788.8311 17.62353 789.9242 15.77104 791.8432 15.77104 C 793.7763 15.77104 794.8693 17.59481 794.8693 19.79401 C 794.8693 21.71933 793.8883 23.73081 791.8572 23.73081 C 789.8402 23.73081 788.8311 21.81882 788.8311 19.69246 M 796.1573 19.85042 C 796.1573 16.51675 794.1833 14.75042 791.7732 14.75042 C 789.2792 14.75042 787.5281 16.73319 787.5281 19.66476 C 787.5281 22.73892 789.3922 24.7504 791.9132 24.7504 C 794.4903 24.7504 796.1573 22.72456 796.1573 19.85042 " fill="#ffffff"/>
<path transform="matrix(1,0,0,-1,-74.4,530.4)" d="M 799.1351 14.90828 L 799.1351 24.59233 L 800.4661 24.59233 L 803.4912 19.69235 C 804.1922 18.55788 804.7392 17.53727 805.1872 16.5464 L 805.2142 16.56076 C 805.1032 17.8532 805.0742 19.0328 805.0742 20.54065 L 805.0742 24.59233 L 806.2232 24.59233 L 806.2232 14.90828 L 804.9902 14.90828 L 801.9921 19.82262 C 801.3341 20.89966 800.7041 22.00643 800.2281 23.05474 L 800.1861 23.04141 C 800.2561 21.81872 800.2831 20.65655 800.2831 19.04614 L 800.2831 14.90828 Z " fill="#ffffff"/>
<path transform="matrix(1,0,0,-1,-74.4,530.4)" d="M 814.3697 18.93115 L 813.4447 21.71912 C 813.2347 22.35098 813.0947 22.92642 812.9547 23.48545 L 812.9267 23.48545 C 812.7867 22.91104 812.6327 22.32226 812.4497 21.73246 L 811.5257 18.93115 Z M 811.2737 17.95464 L 810.2936 14.90818 L 809.0326 14.90818 L 812.2397 24.59326 L 813.7107 24.59326 L 816.9328 14.90818 L 815.6298 14.90818 L 814.6217 17.95464 Z " fill="#ffffff"/>
<path transform="matrix(1,0,0,-1,-74.4,530.4)" d="M 819.7156 24.59274 L 820.9346 24.59274 L 820.9346 15.95701 L 824.9687 15.95701 L 824.9687 14.90869 L 819.7156 14.90869 Z " fill="#ffffff"/>
<path transform="matrix(1,0,0,-1,-74.4,530.4)" d="M 832.0908 24.59274 L 833.3099 24.59274 L 833.3099 15.95701 L 837.344 15.95701 L 837.344 14.90869 L 832.0908 14.90869 Z " fill="#ffffff"/>
<path transform="matrix(1,0,0,-1,-74.4,530.4)" d="M 844.722 18.93115 L 843.797 21.71912 C 843.587 22.35098 843.447 22.92642 843.307 23.48545 L 843.279 23.48545 C 843.139 22.91104 842.985 22.32226 842.802 21.73246 L 841.878 18.93115 Z M 841.626 17.95464 L 840.6459 14.90818 L 839.3849 14.90818 L 842.592 24.59326 L 844.063 24.59326 L 847.2851 14.90818 L 845.9821 14.90818 L 844.974 17.95464 Z " fill="#ffffff"/>
<path transform="matrix(1,0,0,-1,-74.4,530.4)" d="M 851.2857 15.85689 C 851.5237 15.81381 851.8737 15.79843 852.3077 15.79843 C 853.5687 15.79843 854.7318 16.27334 854.7318 17.68067 C 854.7318 19.00285 853.6247 19.54957 852.2947 19.54957 L 851.2857 19.54957 Z M 851.2857 20.49736 L 852.3917 20.49736 C 853.6817 20.49736 854.4367 21.18666 854.4367 22.12111 C 854.4367 23.25661 853.5977 23.70076 852.3647 23.70076 C 851.8047 23.70076 851.4817 23.65768 851.2857 23.61459 Z M 850.0666 24.46391 C 850.5987 24.57777 851.4397 24.66393 852.2947 24.66393 C 853.5137 24.66393 854.2977 24.44852 854.8858 23.96027 C 855.3758 23.5869 855.6708 23.01248 855.6708 22.25036 C 855.6708 21.3159 855.0678 20.49736 854.0727 20.12399 L 854.0727 20.09527 C 854.9698 19.8655 856.0198 19.10337 856.0198 17.66733 C 856.0198 16.8334 855.6978 16.20154 855.2228 15.72765 C 854.5628 15.10913 853.4987 14.82192 851.9587 14.82192 C 851.1177 14.82192 850.4737 14.87936 850.0666 14.93783 Z " fill="#ffffff"/>
<path transform="matrix(1,0,0,-1,-74.4,530.4)" d="M 859.7976 19.69246 C 859.7976 17.62353 860.8906 15.77104 862.8096 15.77104 C 864.7427 15.77104 865.8357 17.59481 865.8357 19.79401 C 865.8357 21.71933 864.8547 23.73081 862.8236 23.73081 C 860.8066 23.73081 859.7976 21.81882 859.7976 19.69246 M 867.1237 19.85042 C 867.1237 16.51675 865.1497 14.75042 862.7396 14.75042 C 860.2456 14.75042 858.4945 16.73319 858.4945 19.66476 C 858.4945 22.73892 860.3586 24.7504 862.8796 24.7504 C 865.4567 24.7504 867.1237 22.72456 867.1237 19.85042 " fill="#ffffff"/>
<path transform="matrix(1,0,0,-1,-74.4,530.4)" d="M 871.3193 20.05198 L 872.5664 20.05198 C 873.8694 20.05198 874.6954 20.78539 874.6954 21.89114 C 874.6954 23.14152 873.8124 23.68722 872.5244 23.70158 C 871.9353 23.70158 871.5153 23.64414 871.3193 23.58669 Z M 870.1003 24.46371 C 870.7163 24.59295 871.5993 24.66373 872.4404 24.66373 C 873.7424 24.66373 874.5834 24.42062 875.1724 23.8739 C 875.6474 23.44309 875.9144 22.78149 875.9144 22.03474 C 875.9144 20.75667 875.1304 19.90838 874.1344 19.5627 L 874.1344 19.51962 C 874.8634 19.26113 875.2984 18.57286 875.5214 17.5666 C 875.8304 16.2157 876.0534 15.28227 876.2504 14.90787 L 874.9894 14.90787 C 874.8354 15.18175 874.6254 16.01363 874.3594 17.22093 C 874.0794 18.55747 873.5744 19.06009 872.4674 19.10317 L 871.3193 19.10317 L 871.3193 14.90787 L 870.1003 14.90787 Z " fill="#ffffff"/>
<path transform="matrix(1,0,0,-1,-74.4,530.4)" d="M 883.7258 18.93115 L 882.8008 21.71912 C 882.5908 22.35098 882.4508 22.92642 882.3108 23.48545 L 882.2828 23.48545 C 882.1428 22.91104 881.9888 22.32226 881.8058 21.73246 L 880.8818 18.93115 Z M 880.6297 17.95464 L 879.6497 14.90818 L 878.3887 14.90818 L 881.5958 24.59326 L 883.0668 24.59326 L 886.2889 14.90818 L 884.9868 14.90818 L 883.9778 17.95464 Z " fill="#ffffff"/>
<path transform="matrix(1,0,0,-1,-74.4,530.4)" d="M 889.7866 23.52895 L 886.9155 23.52895 L 886.9155 24.59264 L 893.9047 24.59264 L 893.9047 23.52895 L 891.0186 23.52895 L 891.0186 14.90859 L 889.7866 14.90859 Z " fill="#ffffff"/>
<path transform="matrix(1,0,0,-1,-74.4,530.4)" d="M 896.7154 19.69246 C 896.7154 17.62353 897.8084 15.77104 899.7275 15.77104 C 901.6605 15.77104 902.7526 17.59481 902.7526 19.79401 C 902.7526 21.71933 901.7725 23.73081 899.7415 23.73081 C 897.7244 23.73081 896.7154 21.81882 896.7154 19.69246 M 904.0416 19.85042 C 904.0416 16.51675 902.0675 14.75042 899.6575 14.75042 C 897.1634 14.75042 895.4124 16.73319 895.4124 19.66476 C 895.4124 22.73892 897.2764 24.7504 899.7975 24.7504 C 902.3745 24.7504 904.0416 22.72456 904.0416 19.85042 " fill="#ffffff"/>
<path transform="matrix(1,0,0,-1,-74.4,530.4)" d="M 908.2381 20.05198 L 909.4851 20.05198 C 910.7881 20.05198 911.6142 20.78539 911.6142 21.89114 C 911.6142 23.14152 910.7311 23.68722 909.4431 23.70158 C 908.8541 23.70158 908.4341 23.64414 908.2381 23.58669 Z M 907.0191 24.46371 C 907.6351 24.59295 908.5181 24.66373 909.3591 24.66373 C 910.6611 24.66373 911.5022 24.42062 912.0912 23.8739 C 912.5662 23.44309 912.8332 22.78149 912.8332 22.03474 C 912.8332 20.75667 912.0492 19.90838 911.0531 19.5627 L 911.0531 19.51962 C 911.7822 19.26113 912.2172 18.57286 912.4402 17.5666 C 912.7492 16.2157 912.9722 15.28227 913.1692 14.90787 L 911.9082 14.90787 C 911.7542 15.18175 911.5442 16.01363 911.2781 17.22093 C 910.9981 18.55747 910.4931 19.06009 909.3861 19.10317 L 908.2381 19.10317 L 908.2381 14.90787 L 907.0191 14.90787 Z " fill="#ffffff"/>
<path transform="matrix(1,0,0,-1,-74.4,530.4)" d="M 917.8995 14.90828 L 917.8995 19.01742 L 914.9154 24.59233 L 916.3015 24.59233 L 917.6325 21.92027 C 917.9975 21.18686 918.2775 20.59809 918.5715 19.92315 L 918.5995 19.92315 C 918.8655 20.55501 919.1875 21.18686 919.5515 21.92027 L 920.9116 24.59233 L 922.2976 24.59233 L 919.1315 19.0328 L 919.1315 14.90828 Z " fill="#ffffff"/>
</g>
<path transform="matrix(1,0,0,-1,-74.4,530.4)" d="M 58.61945 462.5915 L -.000001579039 462.5915 L -.000001579039 498.875 L 58.61945 498.875 Z " fill="#06509d"/>
<path transform="matrix(1,0,0,-1,-74.4,530.4)" d="M 58.61945 455.7891 L -.000001579039 455.7891 L -.000001579039 462.5915 L 58.61945 462.5915 Z " fill="#8ec423"/>
<text fill="#bcbcbe" xml:space="preserve" transform="matrix(.24 0 -0 .24 -47.840284 1055.76)" font-size="41.66666" font-family="Arial" font-weight="bold"><tspan y="-2250" x="0">1</tspan></text>
<path transform="matrix(1,0,0,-1,-74.4,530.4)" d="M 360.042 238.7833 C 360.042 242.9955 363.4566 246.4101 367.6687 246.4101 L 592.3308 246.4101 C 596.543 246.4101 599.9575 242.9955 599.9575 238.7833 L 599.9575 208.277 C 599.9575 204.0648 596.543 200.6502 592.3308 200.6502 L 367.6687 200.6502 C 363.4566 200.6502 360.042 204.0648 360.042 208.277 Z " fill="#8ec423" fill-rule="evenodd"/>
<path transform="matrix(.00007874016,0,0,.00007874016,285.642,283.98994)" stroke-width="28575" stroke-linecap="butt" stroke-miterlimit="8" stroke-linejoin="miter" fill="none" stroke="#000000" d="M 0 96859.44 C 0 43365.45 43365.35 0 96859.23 0 L 2950068 0 C 3003562 0 3046927 43365.45 3046927 96859.44 L 3046927 484290.5 C 3046927 537784.5 3003562 581150 2950068 581150 L 96859.23 581150 C 43365.35 581150 0 537784.5 0 484290.5 Z "/>
<text fill="#ffffff" xml:space="preserve" transform="matrix(.24 0 -0 .24 296.7247 850.56008)" font-size="58.33333" font-family="CourierNewPS" font-weight="bold"><tspan y="-2250" x="0 34.894998 69.78999 104.68499 139.57999 174.47498 209.36997 244.26496 279.15995 314.05494 348.94993 383.8449 418.7399 453.6349 488.52989 523.42489 558.3199 593.2149 628.1099 663.00497 697.89999 732.795 767.69 802.585 837.48007 872.37509">AdaptiveMonteCarloDecision</tspan></text>
<path transform="matrix(1,0,0,-1,-74.4,530.4)" d="M 188.6313 369.6541 C 188.6313 374.0445 192.1905 377.6036 196.5809 377.6036 L 404.9589 377.6036 C 409.3493 377.6036 412.9084 374.0445 412.9084 369.6541 L 412.9084 337.8574 C 412.9084 333.467 409.3493 329.9079 404.9589 329.9079 L 196.5809 329.9079 C 192.1905 329.9079 188.6313 333.467 188.6313 337.8574 Z " fill="#07519e" fill-rule="evenodd"/>
<path transform="matrix(.00007874016,0,0,.00007874016,114.2313,152.79642)" stroke-width="28575" stroke-linecap="butt" stroke-miterlimit="8" stroke-linejoin="miter" fill="none" stroke="#000000" d="M 0 100959.1 C 0 45200.94 45200.86 0 100959 0 L 2747360 0 C 2803118 0 2848319 45200.94 2848319 100959.1 L 2848319 504776.9 C 2848319 560535 2803118 605736 2747360 605736 L 100959 605736 C 45200.86 605736 0 560535 0 504776.9 Z "/>
<text fill="#ffffff" xml:space="preserve" transform="matrix(.24 0 -0 .24 125.869899 711.84)" font-size="58.33333" font-family="CourierNewPS" font-weight="bold"><tspan y="-2250" x="0 34.894998 69.78999 104.68499 139.57999 174.47498 209.36997 244.26496 279.15995 314.05494 348.94993 383.8449 418.7399 453.6349 488.52989 523.42489 558.3199 593.2149 628.1099 663.00497 697.89999 732.795 767.69 802.585">AdaptiveImportanceSample</tspan></text>
<text fill="#ffffff" xml:space="preserve" transform="matrix(.24 0 -0 .24 163.5599 728.88)" font-size="58.33333" font-family="CourierNewPS" font-weight="bold"><tspan y="-2250" x="0 34.894998 69.78999 104.68499 139.57999 174.47498 209.36997 244.26496 279.15995 314.05494 348.94993 383.8449 418.7399 453.6349 488.52989">rActiveLearning</tspan></text>
<path transform="matrix(1,0,0,-1,-74.4,530.4)" d="M 800.269 371.4021 C 800.269 374.8271 803.0455 377.6036 806.4705 377.6036 L 889.681 377.6036 C 893.106 377.6036 895.8825 374.8271 895.8825 371.4021 L 895.8825 346.5971 C 895.8825 343.1721 893.106 340.3956 889.681 340.3956 L 806.4705 340.3956 C 803.0455 340.3956 800.269 343.1721 800.269 346.5971 Z " fill="#07519e" fill-rule="evenodd"/>
<path transform="matrix(.00007874016,0,0,.00007874016,725.86898,152.79642)" stroke-width="28575" stroke-linecap="butt" stroke-miterlimit="8" stroke-linejoin="miter" fill="none" stroke="#000000" d="M 0 78759.21 C 0 35261.7 35261.6 0 78759 0 L 1135533 0 C 1179030 0 1214292 35261.7 1214292 78759.21 L 1214292 393782.8 C 1214292 437280.3 1179030 472542 1135533 472542 L 78759 472542 C 35261.6 472542 0 437280.3 0 393782.8 Z "/>
<text fill="#ffffff" xml:space="preserve" transform="matrix(.24 0 -0 .24 735.17568 715.92007)" font-size="66.66666" font-family="CourierNewPS" font-weight="bold"><tspan y="-2250" x="0 40.106664 80.213329 120.31999 160.42665 200.53331 240.63997 280.74665">MultiApp</tspan></text>
<path transform="matrix(1,0,0,-1,-74.4,530.4)" d="M 372.5739 161.8564 C 372.5739 165.2813 375.3504 168.0578 378.7753 168.0578 L 581.2244 168.0578 C 584.6494 168.0578 587.4259 165.2813 587.4259 161.8564 L 587.4259 137.0512 C 587.4259 133.6263 584.6494 130.8498 581.2244 130.8498 L 378.7753 130.8498 C 375.3504 130.8498 372.5739 133.6263 372.5739 137.0512 Z " fill="#8ec423" fill-rule="evenodd"/>
<path transform="matrix(.00007874016,0,0,.00007874016,298.17393,362.34223)" stroke-width="28575" stroke-linecap="butt" stroke-miterlimit="8" stroke-linejoin="miter" fill="none" stroke="#000000" d="M 0 78758.49 C 0 35261.38 35261.23 0 78758.16 0 L 2649862 0 C 2693359 0 2728620 35261.38 2728620 78758.49 L 2728620 393783.5 C 2728620 437280.6 2693359 472542 2649862 472542 L 78758.16 472542 C 35261.23 472542 0 437280.6 0 393783.5 Z "/>
<text fill="#ffffff" xml:space="preserve" transform="matrix(.24 0 -0 .24 309.2874 924.48)" font-size="58.33333" font-family="CourierNewPS" font-weight="bold"><tspan y="-2250" x="0 34.894998 69.78999 104.68499 139.57999 174.47498 209.36997 244.26496 279.15995 314.05494 348.94993 383.8449 418.7399 453.6349 488.52989 523.42489 558.3199 593.2149 628.1099 663.00497 697.89999 732.795 767.69">AdaptiveImportanceStats</tspan></text>
<path transform="matrix(1,0,0,-1,-74.4,530.4)" d="M 481.1248 200.6502 L 481.1249 173.6828 L 478.8749 173.6828 L 478.8748 200.6502 Z M 483.3749 174.8078 L 479.9999 168.0578 L 476.6249 174.8078 Z "/>
<text xml:space="preserve" transform="matrix(.24 0 -0 .24 412.96583 882.48)" font-size="58.33333" font-family="ArialMT"><tspan y="-2250" x="0 19.273333 35.42 48.44 80.73334 93.753337 122.92 155.21334 171.35999 187.50666 206.77999 239.07332 252.09333 284.38667 297.40669 329.7 361.99336 378.14 411.99668 428.14335 441.16337 489.60337 521.89669 554.19 573.4633 589.61 621.9033 654.19668 683.36337 715.6567 731.80337 760.97006 793.26339 841.70339 873.9967 887.0167 919.31008 948.47677">(finish training + importance samples)</tspan></text>
<text xml:space="preserve" transform="matrix(.24 0 -0 .24 305.6607 615.36)" font-size="58.33333" font-family="ArialMT"><tspan y="-2250" x="0 19.273333 32.29333 64.58667 96.880008 129.17334 145.32 161.46668 190.63333 222.92667 271.36668 303.65998 316.68 348.97334 365.12 397.41334 429.70668 462 494.29335 513.56668 545.86 562.00668 594.3 626.5933">(input sample generated </tspan></text>
<text xml:space="preserve" transform="matrix(.24 0 -0 .24 318.3457 631.44)" font-size="58.33333" font-family="ArialMT"><tspan y="-2250" x="0 42.18667 55.20667 71.37666 103.64667 119.816669 162.00333 175.02333 191.19333 223.46332 255.7333 288.0033 304.1733 320.3433 368.7716 410.95829 459.3866 501.57328">with/without MCMC)</tspan></text>
<path transform="matrix(1,0,0,-1,-74.4,530.4)" d="M 299.6462 377.6579 L 299.7112 379.0039 L 299.9123 380.3994 L 300.2432 381.7872 L 300.7003 383.1652 L 301.2797 384.5321 L 301.9778 385.8872 L 302.7912 387.2301 L 303.7168 388.5609 L 304.7519 389.8798 L 305.8938 391.1867 L 307.1403 392.482 L 308.4893 393.7657 L 309.9386 395.0378 L 311.4863 396.2982 L 313.1304 397.5468 L 314.8691 398.7833 L 316.7005 400.0076 L 318.6227 401.2192 L 320.6338 402.4178 L 322.7371 403.6059 L 327.1817 405.9313 L 331.9578 408.2004 L 337.0447 410.4058 L 342.4272 412.5434 L 348.09 414.6084 L 354.0179 416.5961 L 360.1954 418.5019 L 366.6071 420.3208 L 373.2375 422.0479 L 380.0713 423.6785 L 387.0927 425.2074 L 394.2864 426.6297 L 401.6367 427.9405 L 409.1281 429.1347 L 416.7449 430.2072 L 424.4717 431.1532 L 432.2927 431.9675 L 440.1925 432.6451 L 448.1553 433.181 L 456.1657 433.57 L 464.208 433.8072 L 472.2645 433.8873 L 488.3376 433.784 L 504.281 433.4827 L 512.1687 433.2619 L 519.9762 432.9966 L 527.6895 432.6884 L 535.2929 432.339 L 542.7708 431.95 L 550.1075 431.5231 L 557.2875 431.0598 L 564.2949 430.5619 L 571.1143 430.0309 L 577.73 429.4685 L 584.1264 428.8763 L 590.2879 428.256 L 596.199 427.6092 L 601.8441 426.9374 L 607.2079 426.2423 L 612.2748 425.5254 L 617.0298 424.7882 L 621.4549 424.0327 L 623.5438 423.6476 L 625.5429 423.2588 L 627.453 422.8659 L 629.2721 422.4691 L 630.9986 422.0684 L 632.6308 421.6639 L 634.1672 421.2556 L 635.6062 420.8434 L 636.9466 420.4271 L 638.2867 419.9727 L 639.8096 419.053 L 638.6465 417.127 L 637.2281 417.9835 L 637.4484 417.8811 L 636.2378 418.2917 L 636.2655 418.2827 L 634.9509 418.6909 L 634.9747 418.6838 L 633.5581 419.0896 L 633.5789 419.0838 L 632.0621 419.4869 L 632.0804 419.4822 L 630.4655 419.8824 L 630.4818 419.8785 L 628.7707 420.2756 L 628.7853 420.2724 L 626.98 420.6662 L 626.9931 420.6634 L 625.0955 421.0537 L 625.1074 421.0514 L 623.1196 421.438 L 623.1305 421.4359 L 621.0543 421.8186 L 621.069 421.816 L 616.6596 422.5689 L 616.6766 422.5661 L 611.9375 423.3008 L 611.9523 423.2986 L 606.8991 424.0136 L 606.9122 424.0118 L 601.5607 424.7053 L 601.5724 424.7039 L 595.9384 425.3743 L 595.9489 425.3731 L 590.048 426.0189 L 590.0577 426.0178 L 583.9055 426.6372 L 583.9145 426.6363 L 577.5268 427.2277 L 577.5352 427.2269 L 570.9277 427.7886 L 570.9357 427.788 L 564.1241 428.3184 L 564.1317 428.3178 L 557.1316 428.8152 L 557.1389 428.8147 L 549.9662 429.2775 L 549.9733 429.2771 L 542.6435 429.7036 L 542.6505 429.7033 L 535.1794 430.0919 L 535.1862 430.0916 L 527.5895 430.4407 L 527.5963 430.4404 L 519.8897 430.7483 L 519.8964 430.748 L 512.0956 431.0131 L 512.1024 431.0129 L 504.2231 431.2334 L 504.2333 431.2332 L 488.3021 431.5342 L 488.3161 431.534 L 472.2592 431.6373 L 472.2777 431.6374 L 464.2414 431.5574 L 464.2633 431.5578 L 456.2427 431.3213 L 456.2642 431.3222 L 448.275 430.9342 L 448.2959 430.9354 L 440.3539 430.4009 L 440.3745 430.4025 L 432.4952 429.7266 L 432.5156 429.7286 L 424.7148 428.9164 L 424.735 428.9187 L 417.0284 427.9752 L 417.0486 427.9778 L 409.4519 426.9081 L 409.4722 426.9111 L 402.0011 425.7201 L 402.0215 425.7236 L 394.6918 424.4165 L 394.7125 424.4204 L 387.5397 423.0022 L 387.5609 423.0066 L 380.5609 421.4823 L 380.5826 421.4873 L 373.771 419.8621 L 373.7935 419.8677 L 367.186 418.1465 L 367.2094 418.1529 L 360.8218 416.3408 L 360.8464 416.3481 L 354.6942 414.4501 L 354.7202 414.4585 L 348.8193 412.4798 L 348.847 412.4895 L 343.213 410.435 L 343.2428 410.4463 L 337.8914 408.3212 L 337.9237 408.3346 L 332.8706 406.1437 L 332.9058 406.1597 L 328.1667 403.9083 L 328.2055 403.9277 L 323.7962 401.6207 L 323.8279 401.638 L 321.7518 400.4652 L 321.7745 400.4784 L 319.7866 399.2936 L 319.8106 399.3083 L 317.9131 398.1122 L 317.9384 398.1287 L 316.1331 396.9218 L 316.1599 396.9403 L 314.4488 395.7234 L 314.4772 395.7442 L 312.8623 394.5178 L 312.8923 394.5415 L 311.3755 393.3062 L 311.4072 393.333 L 309.9905 392.0896 L 310.0239 392.1201 L 308.7093 390.8691 L 308.7444 390.904 L 307.5338 389.646 L 307.5704 389.6859 L 306.4657 388.4217 L 306.5035 388.4673 L 305.5069 387.1974 L 305.5454 387.2496 L 304.6587 385.9746 L 304.6973 386.0341 L 303.9224 384.7547 L 303.9603 384.8223 L 303.2992 383.5391 L 303.3349 383.6152 L 302.7896 382.3289 L 302.8216 382.4138 L 302.3941 381.1249 L 302.4206 381.2181 L 302.1128 379.9273 L 302.132 380.0279 L 301.9459 378.7359 L 301.9561 378.8419 L 301.8936 377.5493 Z M 640.3178 421.4766 L 643.763 414.7622 L 636.3243 416.0346 Z "/>
<path transform="matrix(1,0,0,-1,-74.4,530.4)" d="M 533.6279 360.1222 L 531.0412 359.9544 L 528.3959 359.4459 L 525.7743 358.616 L 523.1826 357.4791 L 520.6255 356.0493 L 518.1066 354.3397 L 515.6291 352.3625 L 513.196 350.1291 L 510.8106 347.6504 L 508.4764 344.937 L 506.1971 341.9993 L 503.9765 338.8473 L 501.8188 335.4913 L 499.7282 331.9414 L 497.7091 328.2075 L 495.7659 324.2999 L 493.9034 320.2286 L 492.126 316.0037 L 490.4385 311.6353 L 488.8457 307.1335 L 487.3522 302.5086 L 485.963 297.7705 L 484.6829 292.9296 L 483.5166 287.9959 L 482.4691 282.9797 L 481.5452 277.8911 L 480.7499 272.7403 L 480.0881 267.5375 L 479.5648 262.2929 L 479.1845 257.0137 L 478.9943 252.0772 L 481.2426 251.9905 L 481.4321 256.9083 L 481.4301 256.8708 L 481.8078 262.1158 L 481.8052 262.0849 L 482.3255 267.2989 L 482.3221 267.2687 L 482.98 272.4415 L 482.9759 272.4118 L 483.7666 277.5331 L 483.7617 277.5038 L 484.6802 282.5633 L 484.6746 282.5343 L 485.716 287.5216 L 485.7096 287.4927 L 486.8691 292.3975 L 486.8619 292.3687 L 488.1344 297.1808 L 488.1264 297.1519 L 489.5071 301.8609 L 489.4981 301.8317 L 490.982 306.4273 L 490.972 306.3977 L 492.5543 310.8696 L 492.5432 310.8395 L 494.2188 315.1774 L 494.2064 315.1465 L 495.9706 319.3401 L 495.9566 319.3083 L 497.8044 323.3473 L 497.7887 323.3144 L 499.7151 327.1885 L 499.6974 327.1542 L 501.6976 330.853 L 501.6774 330.8173 L 503.7464 334.3306 L 503.7233 334.293 L 505.8562 337.6104 L 505.8296 337.5709 L 508.0215 340.6822 L 507.9907 340.6405 L 510.2367 343.5353 L 510.2007 343.4912 L 512.4959 346.1593 L 512.4536 346.1128 L 514.793 348.5438 L 514.7432 348.4951 L 517.122 350.6787 L 517.0629 350.6281 L 519.4761 352.554 L 519.4061 352.5024 L 521.8488 354.1603 L 521.7661 354.1092 L 524.2333 355.4887 L 524.1362 355.4404 L 526.6231 356.5313 L 526.5107 356.489 L 529.0124 357.281 L 528.8852 357.2488 L 531.3967 357.7315 L 531.2571 357.7137 L 533.7736 357.8769 Z M 476.7679 253.2297 L 479.9999 246.4101 L 483.5164 253.0875 Z "/>
<path transform="matrix(1,0,0,-1,-74.4,530.4)" d="M 359.9797 222.4068 L 357.1417 222.5644 L 354.2534 223.0396 L 351.3857 223.8168 L 348.545 224.8835 L 345.7369 226.2275 L 342.9664 227.8371 L 340.238 229.7011 L 337.556 231.8085 L 334.9247 234.1491 L 332.3486 236.7126 L 329.832 239.489 L 327.3798 242.4687 L 324.9965 245.6417 L 322.6871 248.9986 L 320.4565 252.5297 L 318.3097 256.2253 L 316.2518 260.0759 L 314.2879 264.0719 L 312.4234 268.2037 L 310.6634 272.4617 L 309.0132 276.8364 L 307.4781 281.3181 L 306.0635 285.8972 L 304.7747 290.5641 L 303.6171 295.3093 L 302.5961 300.1231 L 301.7172 304.9959 L 300.9858 309.918 L 300.4074 314.8799 L 299.9871 319.8756 L 299.7927 324.2346 L 302.0404 324.3348 L 302.2339 319.998 L 302.231 320.0422 L 302.6479 315.0866 L 302.6443 315.1225 L 303.2186 310.1961 L 303.214 310.2312 L 303.9402 305.3438 L 303.9346 305.3781 L 304.8074 300.5394 L 304.8008 300.5731 L 305.8146 295.7928 L 305.807 295.826 L 306.9566 291.1139 L 306.948 291.1467 L 308.2278 286.5125 L 308.2182 286.5451 L 309.6228 281.9985 L 309.6122 282.031 L 311.1362 277.5818 L 311.1245 277.6143 L 312.7624 273.2723 L 312.7495 273.305 L 314.4959 269.0798 L 314.4816 269.1128 L 316.3312 265.0142 L 316.3154 265.0477 L 318.2626 261.0855 L 318.2452 261.1195 L 320.2846 257.3034 L 320.2652 257.3382 L 322.3915 253.6779 L 322.3699 253.7137 L 324.5775 250.2189 L 324.5533 250.2557 L 326.8369 246.9363 L 326.8096 246.9743 L 329.1638 243.8399 L 329.1329 243.8792 L 331.5523 240.9396 L 331.5172 240.9802 L 333.9962 238.2451 L 333.9562 238.287 L 336.4895 235.7662 L 336.4436 235.8093 L 339.0258 233.5125 L 338.9731 233.5565 L 341.5987 231.4934 L 341.5382 231.5378 L 344.2017 229.7182 L 344.1323 229.762 L 346.8283 228.1956 L 346.7489 228.2376 L 349.4721 226.9342 L 349.3819 226.9726 L 352.1268 225.9419 L 352.0256 225.9745 L 354.7868 225.2262 L 354.6752 225.2505 L 357.4472 224.7944 L 357.3269 224.8076 L 360.1044 224.6534 Z M 297.572 323.0721 L 300.7699 329.9078 L 304.3197 323.2481 Z "/>
<text xml:space="preserve" transform="matrix(.24 0 -0 .24 663.65847 835.44009)" font-size="58.33333" font-family="ArialMT"><tspan y="-2250" x="0 19.273333 51.566667 83.86 100.00667 132.3 164.59334 180.73999 196.88666 213.03333 245.32666 264.59999 280.74665 313.03999 345.3333 374.49998 387.52 416.68666 429.70668 462 494.29335">(output for decision </tspan></text>
<text xml:space="preserve" transform="matrix(.24 0 -0 .24 664.03347 851.28)" font-size="58.33333" font-family="ArialMT"><tspan y="-2250" x="0 48.44 80.73334 109.9 122.92 155.21334 187.50667 203.65332 235.94666 268.24 284.38667 300.53334 332.82667 365.12 381.26667 413.56 445.85334 475.02 491.16667">making on the next </tspan></text>
<text xml:space="preserve" transform="matrix(.24 0 -0 .24 698.15847 868.32009)" font-size="58.33333" font-family="ArialMT"><tspan y="-2250" x="0 29.166665 61.46 109.9 142.19335 155.21335 187.50669">sample)</tspan></text>
<text xml:space="preserve" transform="matrix(.24 0 -0 .24 114.455898 790.08)" font-size="58.33333" font-family="ArialMT"><tspan y="-2250" x="0 19.27333 51.554998 83.83666 99.95999 112.99165 126.023319 142.14665 158.26999 190.55165 222.83332 238.95665 258.22999 290.51167 322.79335 355.075 368.1067 387.38 419.66169 451.94337">(until the required </tspan></text>
<text xml:space="preserve" transform="matrix(.24 0 -0 .24 103.39089 806.16006)" font-size="58.33333" font-family="ArialMT"><tspan y="-2250" x="0 16.146668 35.42 67.71333 80.73333 113.026668 126.04666 158.34 190.63333 206.78 240.63666 256.78334 269.80335 318.24336 350.53669 382.83003 402.10334 418.25 450.54335 482.83668 512.00338 544.2967">training + importance </tspan></text>
<text xml:space="preserve" transform="matrix(.24 0 -0 .24 114.830898 823.2)" font-size="58.33333" font-family="ArialMT"><tspan y="-2250" x="0 29.166665 61.46 109.9 142.19335 155.21335 187.50669 216.67334 232.82 265.11335 284.38667 316.68 332.82667 381.26667 413.56 429.70668">samples are met)</tspan></text>
<path transform="matrix(1,0,0,-1,-74.4,530.4)" d="M 533.7007 358.9996 L 643.763 414.7622 L 753.8253 358.9996 L 643.763 303.2369 Z " fill="#8ec423" fill-rule="evenodd"/>
<path transform="matrix(.00007874016,0,0,.00007874016,459.3007,115.63782)" stroke-width="28575" stroke-linecap="butt" stroke-miterlimit="8" stroke-linejoin="miter" fill="none" stroke="#000000" d="M 0 708185.5 L 1397791 0 L 2795583 708185.5 L 1397791 1416371 Z "/>
<text fill="#ffffff" xml:space="preserve" transform="matrix(.24 0 -0 .24 526.0505 696.72006)" font-size="66.66666" font-family="CourierNewPS" font-weight="bold"><tspan y="-2250" x="0 40.106664 80.213329 120.31999 160.42665 200.53331 240.63997 280.74665 320.8533">ActiveLea</tspan></text>
<text fill="#ffffff" xml:space="preserve" transform="matrix(.24 0 -0 .24 526.0505 715.68008)" font-size="66.66666" font-family="CourierNewPS" font-weight="bold"><tspan y="-2250" x="0 40.106664 80.213329 120.31999 160.42665 200.53331 240.63997 280.74665 320.8533">rningGPDe</tspan></text>
<text fill="#ffffff" xml:space="preserve" transform="matrix(.24 0 -0 .24 540.4855 735.60006)" font-size="66.66666" font-family="CourierNewPS" font-weight="bold"><tspan y="-2250" x="0 40.106664 80.213329 120.31999 160.42665 200.53331">cision</tspan></text>
<path transform="matrix(1,0,0,-1,-74.4,530.4)" d="M 849.2002 340.3585 L 849.1086 337.5831 L 848.8322 334.7737 L 848.3756 331.9696 L 847.7421 329.1728 L 846.9351 326.3849 L 845.9581 323.6076 L 844.8144 320.8422 L 843.5073 318.0901 L 842.0402 315.3526 L 840.4163 312.6308 L 838.6387 309.9258 L 836.7105 307.2388 L 834.6348 304.5708 L 832.4147 301.923 L 830.0529 299.2965 L 827.5526 296.6923 L 824.9165 294.1117 L 822.1475 291.5557 L 819.2486 289.0255 L 816.2225 286.5223 L 813.0721 284.0472 L 809.8002 281.6015 L 806.4096 279.1864 L 802.9031 276.8031 L 799.2837 274.4529 L 795.554 272.137 L 791.7168 269.8566 L 787.7751 267.6131 L 783.7316 265.4076 L 779.589 263.2416 L 775.3504 261.1162 L 771.0183 259.0328 L 766.5957 256.9927 L 762.0815 254.9954 L 752.8128 251.1449 L 743.2229 247.4867 L 733.3384 244.0329 L 723.1818 240.7942 L 712.7756 237.7812 L 702.1425 235.0043 L 691.305 232.4744 L 680.2857 230.202 L 669.1071 228.1979 L 657.792 226.4726 L 646.3628 225.037 L 634.8421 223.9016 L 623.2526 223.0774 L 611.6168 222.5749 L 605.5984 222.4872 L 605.5656 224.737 L 611.568 224.8245 L 611.5358 224.8235 L 623.1398 225.3246 L 623.1086 225.3228 L 634.6672 226.1449 L 634.6367 226.1423 L 646.1271 227.2746 L 646.0972 227.2713 L 657.4968 228.7032 L 657.4675 228.6991 L 668.7535 230.42 L 668.7245 230.4152 L 679.8743 232.4141 L 679.8456 232.4086 L 690.8363 234.6751 L 690.8077 234.6688 L 701.6167 237.1921 L 701.5882 237.185 L 712.1928 239.9544 L 712.1641 239.9465 L 722.5415 242.9512 L 722.5126 242.9425 L 732.6401 246.1719 L 732.6108 246.1621 L 742.4657 249.6055 L 742.4358 249.5946 L 751.9955 253.2413 L 751.9648 253.2291 L 761.2064 257.0683 L 761.1828 257.0582 L 765.6773 259.0468 L 765.6612 259.0395 L 770.0676 261.0722 L 770.0513 261.0645 L 774.3668 263.1399 L 774.3501 263.1317 L 778.572 265.2486 L 778.555 265.2399 L 782.6803 267.3969 L 782.6629 267.3876 L 786.6888 269.5835 L 786.671 269.5735 L 790.5947 271.8068 L 790.5764 271.7962 L 794.3951 274.0656 L 794.3763 274.0542 L 798.0871 276.3584 L 798.0679 276.3462 L 801.6679 278.6837 L 801.6481 278.6706 L 805.1345 281.0403 L 805.1143 281.0262 L 808.4843 283.4266 L 808.4634 283.4114 L 811.7141 285.8413 L 811.6927 285.8248 L 814.8213 288.2828 L 814.7993 288.265 L 817.803 290.7497 L 817.7803 290.7304 L 820.6562 293.2405 L 820.6329 293.2196 L 823.3782 295.7538 L 823.3543 295.731 L 825.9661 298.288 L 825.9416 298.2632 L 828.4172 300.8415 L 828.3921 300.8146 L 830.7286 303.413 L 830.7031 303.3836 L 832.8975 306.0007 L 832.8716 305.9687 L 834.9213 308.6032 L 834.8952 308.5683 L 836.7972 311.2188 L 836.771 311.1807 L 838.5225 313.846 L 838.4966 313.8046 L 840.0947 316.4832 L 840.0692 316.4382 L 841.5112 319.1289 L 841.4866 319.0801 L 842.7696 321.7814 L 842.7462 321.7288 L 843.8673 324.4395 L 843.8457 324.3829 L 844.8021 327.1016 L 844.7827 327.0411 L 845.5716 329.7665 L 845.555 329.7022 L 846.1736 332.433 L 846.1604 332.3653 L 846.6057 335.1001 L 846.5965 335.0294 L 846.8658 337.7669 L 846.861 337.6939 L 846.9514 340.4327 Z M 606.756 220.2539 L 599.9576 223.5302 L 606.6577 227.0031 Z "/>
<text xml:space="preserve" transform="matrix(.24 0 -0 .24 247.86151 770.64)" font-size="58.33333" font-family="ArialMT"><tspan y="-2250" x="0 19.273333 48.439996 80.73333 129.17333 177.61331 209.90665 242.19998 255.21999 284.38667 316.68 332.82667 365.12 381.26667 426.58 464.5783">(communicate GP </tspan></text>
<text xml:space="preserve" transform="matrix(.24 0 -0 .24 237.67151 786.72006)" font-size="58.33333" font-family="ArialMT"><tspan y="-2250" x="0 32.293336 51.566667 83.86 116.153339 129.17334 158.34 174.48667 187.50667 219.8 252.09334 268.24 300.53334 332.82667 365.12 378.14 391.16004 407.3067 436.47337 452.62004 484.91334 517.20669 549.5">prediction quality and </tspan></text>
<text xml:space="preserve" transform="matrix(.24 0 -0 .24 263.2965 803.76)" font-size="58.33333" font-family="ArialMT"><tspan y="-2250" x="0 32.293336 64.58667 80.73334 113.02667 145.32 161.46668 177.61334 206.78 239.07334 252.09334 284.38667 316.68">output value)</tspan></text>
<path transform="matrix(1,0,0,-1,-74.4,530.4)" d="M 753.8253 360.1246 L 794.644 360.1245 L 794.644 357.8745 L 753.8253 357.8746 Z M 793.519 362.3745 L 800.269 358.9995 L 793.519 355.6245 Z "/>
<text fill="#8ec423" xml:space="preserve" transform="matrix(.24 0 -0 .24 439.5983 761.28)" font-size="58.33333" font-family="Arial" font-weight="bold"><tspan y="-2250" x="0 45.31333 83.335">GP </tspan></text>
<text fill="#8ec423" xml:space="preserve" transform="matrix(.24 0 -0 .24 415.9083 777.12)" font-size="58.33333" font-family="Arial" font-weight="bold"><tspan y="-2250" x="0 35.414167 58.345 90.6675 126.081668 142.24584 174.56833 193.82416 209.98833 245.4025 280.81666">prediction </tspan></text>
<text fill="#8ec423" xml:space="preserve" transform="matrix(.24 0 -0 .24 432.5933 794.16006)" font-size="58.33333" font-family="Arial" font-weight="bold"><tspan y="-2250" x="0 35.414167 70.82833 106.24249">good</tspan></text>
<text fill="#cf1d4c" xml:space="preserve" transform="matrix(.24 0 -0 .24 686.97109 667.92007)" font-size="58.33333" font-family="Arial" font-weight="bold"><tspan y="-2250" x="0 45.31333 83.335">GP </tspan></text>
<text fill="#cf1d4c" xml:space="preserve" transform="matrix(.24 0 -0 .24 663.28109 684)" font-size="58.33333" font-family="Arial" font-weight="bold"><tspan y="-2250" x="0 35.414167 58.345 90.6675 126.081668 142.24584 174.56833 193.82416 209.98833 245.4025 280.81666">prediction </tspan></text>
<text fill="#cf1d4c" xml:space="preserve" transform="matrix(.24 0 -0 .24 684.59109 700.80007)" font-size="58.33333" font-family="Arial" font-weight="bold"><tspan y="-2250" x="0 35.414167 67.736667">bad</tspan></text>
<path transform="matrix(1,0,0,-1,-74.4,530.4)" d="M 849.1989 340.3312 L 849.0473 337.6841 L 848.589 334.9849 L 847.8398 332.306 L 846.8121 329.654 L 845.518 327.0337 L 843.9688 324.4498 L 842.1756 321.9062 L 840.1488 319.4067 L 837.8985 316.9551 L 835.4344 314.5554 L 832.7661 312.2117 L 829.9028 309.9282 L 826.8541 307.7092 L 823.629 305.5591 L 820.2368 303.4825 L 816.6867 301.484 L 812.9879 299.5684 L 809.1496 297.7405 L 805.181 296.005 L 801.0912 294.3668 L 796.8895 292.8309 L 792.585 291.4021 L 788.1871 290.0855 L 783.7049 288.886 L 779.1475 287.8087 L 774.5244 286.8585 L 769.8446 286.0405 L 765.1173 285.3598 L 760.352 284.8215 L 755.5577 284.4306 L 750.7437 284.1923 L 745.9228 284.1118 L 736.3309 284.2153 L 726.8179 284.5171 L 717.455 285.0039 L 708.3195 285.6623 L 703.855 286.0522 L 699.4772 286.4799 L 695.1926 286.944 L 691.0105 287.4428 L 686.9402 287.9749 L 682.9908 288.5385 L 679.1715 289.1321 L 675.4916 289.754 L 671.9601 290.4027 L 668.586 291.0768 L 665.3786 291.7746 L 662.3464 292.4948 L 659.4985 293.236 L 656.8432 293.9971 L 654.389 294.777 L 652.1436 295.5753 L 650.1144 296.392 L 648.1926 297.2815 L 646.9539 298.3728 L 648.4412 300.0611 L 649.5572 299.0779 L 649.2861 299.2547 L 651.0335 298.4458 L 650.981 298.4686 L 652.9622 297.6712 L 652.919 297.6876 L 655.1247 296.9034 L 655.0886 296.9156 L 657.5094 296.1463 L 657.4786 296.1556 L 660.1052 295.4027 L 660.0785 295.41 L 662.9015 294.6753 L 662.8781 294.6811 L 665.8881 293.9662 L 665.8673 293.9709 L 669.055 293.2774 L 669.0362 293.2813 L 672.3923 292.6109 L 672.3752 292.6141 L 675.8902 291.9684 L 675.8744 291.9712 L 679.5391 291.3518 L 679.5244 291.3542 L 683.3294 290.7629 L 683.3156 290.7649 L 687.2515 290.2033 L 687.2384 290.2051 L 691.2959 289.6747 L 691.2833 289.6763 L 695.4531 289.1788 L 695.441 289.1802 L 699.7136 288.7174 L 699.7018 288.7186 L 704.068 288.2921 L 704.0565 288.2931 L 708.5068 287.9045 L 708.4898 287.9059 L 717.6055 287.2489 L 717.5831 287.2503 L 726.9233 286.7647 L 726.9006 286.7656 L 736.3904 286.4646 L 736.3669 286.4651 L 745.9316 286.3618 L 745.9007 286.3617 L 750.6877 286.4417 L 750.6508 286.4404 L 755.4285 286.677 L 755.3927 286.6746 L 760.1517 287.0626 L 760.1168 287.0592 L 764.8477 287.5937 L 764.8136 287.5893 L 769.5072 288.2651 L 769.4738 288.2598 L 774.1205 289.072 L 774.0877 289.0658 L 778.6784 290.0093 L 778.646 290.0021 L 783.1712 291.0719 L 783.1391 291.0638 L 787.5895 292.2548 L 787.5577 292.2458 L 791.9238 293.5528 L 791.892 293.5428 L 796.1647 294.961 L 796.1328 294.9499 L 800.3026 296.4741 L 800.2705 296.4619 L 804.328 298.0871 L 804.2956 298.0735 L 808.2315 299.7947 L 808.1985 299.7797 L 812.0035 301.5917 L 811.9699 301.575 L 815.6346 303.4729 L 815.6001 303.4543 L 819.1151 305.433 L 819.0796 305.4122 L 822.4357 307.4667 L 822.399 307.4432 L 825.5867 309.5684 L 825.5487 309.5419 L 828.5587 311.7328 L 828.5193 311.7027 L 831.3422 313.9541 L 831.3013 313.9199 L 833.9278 316.2268 L 833.8854 316.1876 L 836.3062 318.545 L 836.2623 318.4998 L 838.4679 320.9027 L 838.4229 320.8506 L 840.4041 323.2939 L 840.3585 323.2335 L 842.1058 325.7122 L 842.0605 325.6425 L 843.5647 328.1515 L 843.5209 328.0712 L 844.7726 330.6054 L 844.7323 330.5137 L 845.7221 333.0681 L 845.6877 332.9646 L 846.4062 335.5342 L 846.3806 335.4195 L 846.8186 337.9992 L 846.8045 337.8752 L 846.9526 340.4599 Z M 646.0725 296.0522 L 643.7631 303.2369 L 650.8965 300.7736 Z "/>
<text xml:space="preserve" transform="matrix(.24 0 -0 .24 627.83438 759.12)" font-size="58.33333" font-family="ArialMT"><tspan y="-2250" x="0 19.27333 51.554998 83.83666 99.95999 132.24166 164.52332 180.64665 196.76999 212.89333 245.17499 264.4483 280.57164 325.8616 363.85993">(output for GP </tspan></text>
<text xml:space="preserve" transform="matrix(.24 0 -0 .24 640.14437 774.96)" font-size="58.33333" font-family="ArialMT"><tspan y="-2250" x="0 19.27333 51.554998 67.67833 86.95166 119.23332 132.265 164.54666 177.57834 209.86 242.14167">retraining)</tspan></text>
<path transform="matrix(1,0,0,-1,-74.4,530.4)" d="M 478.8749 130.8498 L 478.8748 112.0148 L 481.1248 112.0148 L 481.1249 130.8498 Z M 476.6248 113.1398 L 479.9997 106.3898 L 483.3748 113.1398 Z "/>
<text xml:space="preserve" transform="matrix(.24 0 -0 .24 331.2247 981.60006)" font-size="58.33333" font-family="Arial" font-weight="bold"><tspan y="-2250" x="0 35.414167 70.82833 103.15083 119.315 142.24584 174.56833 209.9825 245.39667 261.56083 284.49168 316.81419 352.22834 368.3925 400.715 419.97084 452.29335 471.54917 487.71333 520.03579 539.2916 555.4558 587.77828">The required statistics</tspan></text>
<path transform="matrix(1,0,0,-1,-74.4,530.4)" d="M 81.94748 443.2081 C 81.94748 447.5985 85.50656 451.1576 89.8969 451.1576 L 207.8423 451.1576 C 212.2327 451.1576 215.7917 447.5985 215.7917 443.2081 L 215.7917 411.4112 C 215.7917 407.0209 212.2327 403.4618 207.8423 403.4618 L 89.8969 403.4618 C 85.50656 403.4618 81.94748 407.0209 81.94748 411.4112 Z " fill="#07519e" fill-rule="evenodd"/>
<path transform="matrix(.00007874016,0,0,.00007874016,7.5474779,79.24243)" stroke-width="28575" stroke-linecap="butt" stroke-miterlimit="8" stroke-linejoin="miter" fill="none" stroke="#000000" d="M 0 100957.9 C 0 45200.37 45200.26 0 100957.6 0 L 1598864 0 C 1654622 0 1699822 45200.37 1699822 100957.9 L 1699822 504778.1 C 1699822 560535.6 1654622 605736 1598864 605736 L 100957.6 605736 C 45200.26 605736 0 560535.6 0 504778.1 Z "/>
<text fill="#ffffff" xml:space="preserve" transform="matrix(.24 0 -0 .24 20.03209 646.80007)" font-size="58.33333" font-family="CourierNewPS" font-weight="bold"><tspan y="-2250" x="0 34.894998 69.78999 104.68499 139.57999 174.47498 209.36997 244.26496 279.15995 314.05494 348.94993 383.8449 418.7399">Distributions</tspan></text>
<path transform="matrix(1,0,0,-1,-74.4,530.4)" d="M 188.5879 352.6315 L 186.6822 352.7052 L 184.7399 352.9278 L 182.8093 353.2922 L 180.8943 353.7931 L 178.9987 354.4251 L 177.1263 355.1828 L 175.2805 356.0611 L 173.4646 357.055 L 171.6821 358.1594 L 169.9362 359.3695 L 168.2302 360.6805 L 166.5675 362.0877 L 164.9514 363.5864 L 163.377 365.1804 L 160.4162 368.5852 L 157.6882 372.2925 L 155.2291 376.2573 L 153.0673 380.4439 L 151.2361 384.8063 L 150.446 387.0621 L 149.7522 389.3407 L 149.1547 391.6482 L 148.6572 393.9801 L 148.2599 396.3544 L 148.1476 397.7614 L 150.3904 397.9404 L 150.4989 396.5818 L 150.487 396.678 L 150.8723 394.3761 L 150.8629 394.4251 L 151.3501 392.1414 L 151.339 392.1887 L 151.9244 389.9277 L 151.9116 389.9734 L 152.5917 387.7398 L 152.5773 387.7839 L 153.3484 385.5821 L 153.3239 385.6457 L 155.1247 381.3559 L 155.087 381.4366 L 157.208 377.3288 L 157.1645 377.4056 L 159.5768 373.5163 L 159.5269 373.5901 L 162.2013 369.9556 L 162.1441 370.027 L 165.0514 366.6838 L 165.0029 366.7361 L 166.5349 365.1851 L 166.4995 365.2194 L 168.0787 363.7548 L 168.0405 363.7887 L 169.6635 362.4151 L 169.6222 362.4484 L 171.2852 361.1704 L 171.2406 361.203 L 172.94 360.0251 L 172.8917 360.0568 L 174.6238 358.9836 L 174.5715 359.0141 L 176.3328 358.0501 L 176.276 358.0791 L 178.0628 357.2289 L 178.0014 357.2559 L 179.81 356.524 L 179.7438 356.5484 L 181.5707 355.9394 L 181.4995 355.9605 L 183.3409 355.4789 L 183.2649 355.496 L 185.1172 355.1463 L 185.0366 355.1585 L 186.8962 354.9454 L 186.8116 354.9519 L 188.6748 354.8798 Z M 145.9824 396.4891 L 148.8696 403.4617 L 152.7153 396.9684 Z "/>
<path transform="matrix(1,0,0,-1,-74.4,530.4)" d="M 184.2186 514.1863 C 184.2186 518.5766 187.7776 522.1357 192.1679 522.1357 L 409.3717 522.1357 C 413.762 522.1357 417.321 518.5766 417.321 514.1863 L 417.321 482.3893 C 417.321 477.999 413.762 474.4399 409.3717 474.4399 L 192.1679 474.4399 C 187.7776 474.4399 184.2186 477.999 184.2186 482.3893 Z " fill="#07519e" fill-rule="evenodd"/>
<path transform="matrix(.00007874016,0,0,.00007874016,109.818599,8.264343)" stroke-width="28575" stroke-linecap="butt" stroke-miterlimit="8" stroke-linejoin="miter" fill="none" stroke="#000000" d="M 0 100956.5 C 0 45199.78 45199.55 0 100956 0 L 2859445 0 C 2915201 0 2960401 45199.78 2960401 100956.5 L 2960401 504779.4 C 2960401 560536.2 2915201 605736 2859445 605736 L 100956 605736 C 45199.55 605736 0 560536.2 0 504779.4 Z "/>
<text fill="#ffffff" xml:space="preserve" transform="matrix(.24 0 -0 .24 121.682308 575.76)" font-size="58.33333" font-family="CourierNewPS" font-weight="bold"><tspan y="-2250" x="0 34.894998 69.78999 104.68499 139.57999 174.47498 209.36997 244.26496 279.15995 314.05494 348.94993 383.8449 418.7399 453.6349 488.52989 523.42489 558.3199 593.2149 628.1099 663.00497 697.89999 732.795 767.69 802.585 837.48007">AdaptiveImportanceSampler</tspan></text>
<path transform="matrix(1,0,0,-1,-74.4,530.4)" d="M 299.6449 377.6036 L 299.6448 468.8149 L 301.8948 468.8149 L 301.8949 377.6036 Z M 297.3948 467.6899 L 300.7698 474.4399 L 304.1448 467.6899 Z "/>
</g>
</g>
</svg>
